<svg xmlns="http://www.w3.org/2000/svg" viewBox="0 0 86.05 87.03"><defs><style>.cls-1{fill:#090405;}</style></defs><title>mo_nav_poly_right</title><g id="Layer_2" data-name="Layer 2"><g id="Layer_1-2" data-name="Layer 1"><path class="cls-1" d="M64,62.57l-9.58-9.46,3.45-12.86,13-3.4,9.58,9.46L77,59.16Z"/><path class="cls-1" d="M40,56.13l-9.58-9.46,3.45-12.86,13-3.4,9.58,9.46L53,52.73Z"/><path class="cls-1" d="M58.44,38.09l-9.58-9.46,3.45-12.86,13-3.4,9.58,9.46L71.47,34.69Z"/><path class="cls-1" d="M69.56,87,60,77.57,63.41,64.7l13-3.4L86,70.77,82.6,83.63Z"/><path class="cls-1" d="M45.52,80.59,36,71.1l3.46-12.93,13-3.44L62,64.22,58.55,77.15Z"/><path class="cls-1" d="M33.59,32.16,24,22.7,27.46,9.84l13-3.4,9.58,9.46L46.62,28.76Z"/><path class="cls-1" d="M15.23,49.77,5.66,40.31,9.1,27.45l13-3.4L31.7,33.5,28.26,46.36Z"/><path class="cls-1" d="M9.58,25.72,0,16.27,3.45,3.4l13-3.4L26,9.46,22.6,22.32Z"/></g></g></svg>