<svg xmlns="http://www.w3.org/2000/svg" viewBox="0 0 69.03 109"><defs><style>.cls-1{fill:#030202;}</style></defs><title>mo_nav_poly_left</title><g id="Layer_2" data-name="Layer 2"><g id="Layer_1-2" data-name="Layer 1"><path class="cls-1" d="M29.74,27.53l3.55,13L23.9,49.91,11,46.35l-3.55-13L16.79,24Z"/><path class="cls-1" d="M47.27,45.1l3.55,13-9.39,9.41L28.49,63.92,24.94,51l9.39-9.41Z"/><path class="cls-1" d="M22.33,51.49l3.55,13L16.5,73.87,3.55,70.31,0,57.34l9.39-9.41Z"/><path class="cls-1" d="M37.14,3.58l3.57,13L31.32,26l-13-3.58-3.57-13L24.17,0Z"/><path class="cls-1" d="M54.69,21.17l3.53,13-9.44,9.46-13-3.54-3.53-13,9.44-9.46Z"/><path class="cls-1" d="M40.84,69l3.55,13L35,91.43,22.06,87.86l-3.55-13,9.39-9.41Z"/><path class="cls-1" d="M65.47,63,69,76l-9.39,9.41L46.69,81.8l-3.55-13,9.39-9.41Z"/><path class="cls-1" d="M58.37,86.61l3.55,13L52.53,109l-12.94-3.56L36,92.46l9.39-9.41Z"/></g></g></svg>