<?xml version="1.0" encoding="utf-8"?>
<!-- Generator: Adobe Illustrator 21.0.2, SVG Export Plug-In . SVG Version: 6.00 Build 0)  -->
<svg version="1.1" id="Слой_1" xmlns="http://www.w3.org/2000/svg" xmlns:xlink="http://www.w3.org/1999/xlink" x="0px" y="0px"
	 viewBox="0 0 100 125" style="enable-background:new 0 0 100 125;" xml:space="preserve">
<g>
	<g>
		<path d="M22.1,48.5c-1.1,0-2-0.9-2-2c0-1.5,0-3.1,0-4.6c0-1.1,0.9-2,2-2c1.1,0,2,0.9,2,2c0,1.5,0,3.1,0,4.6
			C24.1,47.6,23.2,48.5,22.1,48.5L22.1,48.5z"/>
		<path d="M30.4,81.4C23,74.1,19.1,63.2,20.1,53c0.1-1.1,1.1-1.9,2.2-1.8c1.1,0.1,1.9,1.1,1.8,2.2c-1,9,2.5,18.7,9.1,25.1
			c5.5,5.5,12.6,8,19.9,7.1c1.1-0.1,2.1,0.7,2.2,1.7c0.1,1.1-0.7,2.1-1.7,2.2c-1.1,0.1-2.2,0.2-3.4,0.2
			C42.9,89.8,35.9,86.8,30.4,81.4z"/>
		<path d="M57.4,86.8c-0.3-1.1,0.3-2.2,1.4-2.5c2.8-0.8,5.3-2,7.4-3.7c0.9-0.7,2.1-0.5,2.8,0.4c0.7,0.9,0.5,2.1-0.4,2.8
			c-2.5,2-5.5,3.4-8.8,4.3c-0.2,0.1-0.4,0.1-0.5,0.1C58.5,88.2,57.7,87.7,57.4,86.8z"/>
		<path d="M71.6,78.1c-0.9-0.6-1.2-1.8-0.6-2.8c5.8-9,5.9-20.9,5.2-32.3c-0.1-1.1,0.8-2.1,1.9-2.1c1.1-0.1,2.1,0.8,2.1,1.9
			c0.8,12.1,0.6,24.7-5.8,34.7c-0.4,0.6-1,0.9-1.7,0.9C72.4,78.4,72,78.3,71.6,78.1z"/>
		<path d="M76.1,37.1C75.6,32,73.4,27,69.9,23c-0.7-0.8-0.6-2.1,0.2-2.8c0.8-0.7,2.1-0.6,2.8,0.2c4,4.6,6.5,10.4,7.1,16.3
			c0.1,1.1-0.7,2.1-1.8,2.2c-0.1,0-0.1,0-0.2,0C77.1,38.9,76.2,38.2,76.1,37.1z"/>
		<path d="M82.7,24.3C79,16.5,72.4,10.3,64.3,6.9c-1-0.4-1.5-1.6-1.1-2.6c0.4-1,1.6-1.5,2.6-1.1c9,3.8,16.3,10.7,20.5,19.3
			c0.5,1,0.1,2.2-0.9,2.7c-0.3,0.1-0.6,0.2-0.9,0.2C83.8,25.4,83,25,82.7,24.3z"/>
		<path d="M38.6,3.8c-0.3-1.1,0.3-2.2,1.4-2.4c4.7-1.3,9.6-1.6,14.5-1.1c1.1,0.1,1.9,1.1,1.8,2.2c-0.1,1.1-1.1,1.9-2.2,1.8
			c-4.4-0.5-8.8-0.2-13,1c-0.2,0-0.3,0.1-0.5,0.1C39.6,5.3,38.8,4.7,38.6,3.8z"/>
		<path d="M10,46.1c0.5-19.4,6.8-32.6,19.5-40.3c0.9-0.6,2.2-0.3,2.7,0.7c0.6,0.9,0.3,2.2-0.7,2.7C20,16.3,14.4,28,14,46.2
			c0,1.1-0.9,2-2,2C10.8,48.1,10,47.2,10,46.1z"/>
		<path d="M28.4,93.1c-10.7-7-17.2-18.6-18.2-32.6c-0.1-1.1,0.7-2.1,1.8-2.1c1.1-0.1,2.1,0.7,2.1,1.8C15,73,20.9,83.5,30.5,89.8
			c0.9,0.6,1.2,1.8,0.6,2.8c-0.4,0.6-1,0.9-1.7,0.9C29.1,93.5,28.7,93.4,28.4,93.1z"/>
		<path d="M35.7,97c-1-0.4-1.5-1.6-1.1-2.6c0.4-1,1.6-1.5,2.6-1.1c12.1,4.8,26.3,2.5,36.2-5.8c0.8-0.7,2.1-0.6,2.8,0.2
			c0.7,0.8,0.6,2.1-0.2,2.8c-7.2,6.1-16.4,9.3-25.7,9.3C45.3,99.7,40.4,98.8,35.7,97z"/>
		<path d="M79.1,84.6c-0.9-0.7-1.1-1.9-0.4-2.8c4.7-6.4,7.4-15,7.6-24.9c0-1.1,0.9-2,2-2h0c1.1,0,2,0.9,2,2
			c-0.2,10.6-3.1,20-8.4,27.1c-0.4,0.5-1,0.8-1.6,0.8C79.9,84.9,79.4,84.8,79.1,84.6z"/>
		<path d="M88.3,52.9c-1.1,0-2-0.9-2-2l0-1.3c0-1.4,0-2.8,0-4.3c0-1.1,0.9-2,2-2c1.1,0,2,0.9,2,2c0,1.4,0,2.8,0,4.2l0,1.3
			C90.3,52,89.4,52.9,88.3,52.9L88.3,52.9z"/>
		<path d="M30.2,51v-6.1c0-1.1,0.9-2,2-2c1.1,0,2,0.9,2,2V51c0,1.1-0.9,2-2,2C31.1,53,30.2,52.1,30.2,51z"/>
		<path d="M48.6,79.8C38,79,30.1,69.9,30.2,58.8c0-1.1,0.9-2,2-2c1.1,0,2,0.9,2,2c-0.1,9,6.2,16.3,14.7,17c4.3,0.3,8.5-1.1,11.8-4
			c3.4-3.1,5.4-7.5,5.5-12.2c0.1-3.1,0-6.2,0-9.2c0-1.5,0-14.5-1.9-18.2c-4.1-7.7-12-8.9-17.5-7.7c-5.5,1.2-12,5.7-12.5,14.4
			c-0.1,1.1-1,2-2.1,1.9c-1.1-0.1-1.9-1-1.9-2.1c0.5-9,6.6-16.1,15.6-18.1c9-2,17.7,1.8,21.9,9.7c2.5,4.6,2.4,18.5,2.4,20
			c0,3.1,0,6.2,0,9.3c-0.1,5.8-2.6,11.3-6.9,15.1c-3.7,3.3-8.3,5.1-13.1,5.1C49.7,79.9,49.2,79.9,48.6,79.8z"/>
		<path d="M44.1,67.7c-2.4-2.1-3.6-5.5-3.8-10.2c-0.2-3.7-0.1-7.5-0.1-11.2c0-1.8,0-3.6,0-5.5c0-1.1,0.9-2,2-2c1.1,0,2,0.9,2,2
			c0,1.8,0,3.7,0,5.5c0,3.6-0.1,7.4,0.1,11c0.1,3.6,1,6,2.5,7.4c1.8,1.6,5.2,1.6,7.2-0.1c1.9-1.5,2.2-4.5,2.2-7.1c0-1.1,1-2,2-2
			c1.1,0,2,0.9,1.9,2c-0.1,3.4-0.6,7.6-3.7,10.1c-1.8,1.5-4.1,2.2-6.3,2.2C48,69.9,45.7,69.2,44.1,67.7z"/>
		<path d="M56.3,47.4c0-0.6,0-1.2,0-1.8c0.1-4,0.2-7.7-2.4-10.1c-2.3-2.1-5.5-2.1-7.7,0.1c-0.8,0.8-2.1,0.7-2.8-0.1
			c-0.8-0.8-0.7-2.1,0.1-2.8c3.8-3.6,9.4-3.6,13.2-0.1c3.9,3.6,3.8,8.7,3.7,13.2c0,0.6,0,1.2,0,1.7c0,1.1-0.9,2-2,2
			C57.2,49.4,56.3,48.5,56.3,47.4z"/>
		<path d="M48.2,58.9v-17c0-1.1,0.9-2,2-2s2,0.9,2,2v17c0,1.1-0.9,2-2,2S48.2,60,48.2,58.9z"/>
		<path d="M22.1,38.9c-1.1-0.2-1.9-1.2-1.7-2.3C22.3,22.9,33.9,12.1,47.8,11c1.1-0.1,2.1,0.7,2.2,1.8s-0.7,2.1-1.8,2.2
			C36,16,26,25.3,24.4,37.2c-0.1,1-1,1.7-2,1.7C22.3,38.9,22.2,38.9,22.1,38.9z"/>
		<path d="M62.2,18c-2.4-1.3-4.9-2.2-7.6-2.6c-1.1-0.2-1.8-1.2-1.6-2.3c0.2-1.1,1.2-1.8,2.3-1.6c3,0.6,6,1.6,8.7,3.1
			c1,0.5,1.3,1.7,0.8,2.7c-0.4,0.7-1.1,1.1-1.8,1.1C62.9,18.2,62.5,18.1,62.2,18z"/>
	</g>
</g>
</svg>
