<?xml version="1.0" encoding="utf-8"?>
<!-- Generator: Adobe Illustrator 21.0.2, SVG Export Plug-In . SVG Version: 6.00 Build 0)  -->
<svg version="1.1"
	 id="Слой_1" xmlns:cc="http://creativecommons.org/ns#" xmlns:dc="http://purl.org/dc/elements/1.1/" xmlns:inkscape="http://www.inkscape.org/namespaces/inkscape" xmlns:rdf="http://www.w3.org/1999/02/22-rdf-syntax-ns#" xmlns:sodipodi="http://sodipodi.sourceforge.net/DTD/sodipodi-0.dtd" xmlns:svg="http://www.w3.org/2000/svg"
	 xmlns="http://www.w3.org/2000/svg" xmlns:xlink="http://www.w3.org/1999/xlink" x="0px" y="0px" viewBox="0 0 536.5 320.2"
	 style="enable-background:new 0 0 536.5 320.2;" xml:space="preserve">
<g transform="translate(-134.5217,-533.39455)">
	<path d="M221.3,533.4c-47.9,0-86.7,39-86.7,86.8v82.5c0,47.8,38.9,86.8,86.7,86.8h363c47.8,0,86.8-39,86.8-86.8v-82.5
		c0-47.9-39-86.8-86.8-86.8L221.3,533.4L221.3,533.4z M221.3,550h363c38.7,0,70.2,31.5,70.2,70.2v82.5c0,38.7-31.5,70.2-70.2,70.2
		h-363c-38.7,0-70.2-31.5-70.2-70.2v-82.5C151,581.5,182.5,550,221.3,550L221.3,550z M226.1,620.8c-1.1-0.2-2.2,0-3.2,0.6l-11.2,7.4
		c-2,1.4-2.5,4.1-1.1,6.1l10.4,15.4h-18.5c-2.5,0-4.4,2-4.4,4.4v13.3c0,2.4,2,4.4,4.4,4.4h18.5l-10.4,15.4c-1.4,2-0.9,4.8,1.1,6.1
		l11.2,7.4c2,1.4,4.7,0.8,6.1-1.2l12.9-18.9l12.8,18.9c1.4,2,4.1,2.6,6.1,1.2l11.1-7.4c2-1.4,2.6-4.2,1.2-6.1l-10.4-15.4h18.5
		c2.4,0,4.4-2,4.4-4.4v-13.3c0-2.4-1.9-4.4-4.4-4.4h-18.5L273,635c1.4-2,0.8-4.8-1.2-6.1l-11.1-7.4c-2.1-1.4-4.8-0.8-6.1,1.2
		l-12.8,18.9l-12.9-18.9C228.3,621.6,227.2,621,226.1,620.8L226.1,620.8z M333.5,620.8c-1.1-0.2-2.3,0-3.3,0.6l-11.2,7.4
		c-2,1.4-2.5,4.1-1.1,6.1l10.4,15.4h-18.5c-2.5,0-4.4,2-4.4,4.4v13.3c0,2.4,1.9,4.4,4.4,4.4h18.5l-10.4,15.4c-1.4,2-0.9,4.8,1.1,6.1
		l11.2,7.4c2,1.4,4.7,0.8,6.1-1.2l12.9-18.9l12.8,18.9c1.3,2,4.2,2.6,6.1,1.2l11.1-7.4c2-1.4,2.6-4.2,1.2-6.1L370,672.6h18.5
		c2.5,0,4.4-2,4.4-4.4v-13.3c0-2.4-1.9-4.4-4.4-4.4H370l10.4-15.4c1.4-2,0.8-4.8-1.2-6.1l-11.1-7.4c-2-1.4-4.8-0.8-6.1,1.2
		l-12.8,18.9l-12.9-18.9C335.6,621.6,334.6,621,333.5,620.8L333.5,620.8z M440.8,620.8c-1.1-0.2-2.3,0-3.3,0.6l-11.1,7.4
		c-2,1.4-2.6,4.1-1.2,6.1l10.4,15.4H417c-2.4,0-4.4,2-4.4,4.4v13.3c0,2.4,2,4.4,4.4,4.4h18.5l-10.4,15.4c-1.4,2-0.8,4.8,1.2,6.1
		l11.1,7.4c2.1,1.4,4.8,0.8,6.1-1.2l12.8-18.9l12.8,18.9c1.4,2,4.2,2.6,6.1,1.2l11.1-7.4c2-1.4,2.6-4.2,1.2-6.1l-10.4-15.4h18.5
		c2.5,0,4.4-2,4.4-4.4v-13.3c0-2.4-1.9-4.4-4.4-4.4h-18.5l10.4-15.4c1.3-2,0.8-4.8-1.2-6.1l-11.1-7.4c-2-1.4-4.8-0.8-6.1,1.2
		l-12.8,18.9l-12.8-18.9C442.9,621.6,441.9,621,440.8,620.8L440.8,620.8z M519.9,685.2v17h87.6v-17H519.9z"/>
</g>
</svg>
