<?xml version="1.0" encoding="utf-8"?>
<!-- Generator: Adobe Illustrator 21.0.2, SVG Export Plug-In . SVG Version: 6.00 Build 0)  -->
<svg version="1.1" id="Слой_1" xmlns="http://www.w3.org/2000/svg" xmlns:xlink="http://www.w3.org/1999/xlink" x="0px" y="0px"
	 viewBox="0 0 100 50" style="enable-background:new 0 0 100 50;" xml:space="preserve">
<g>
	<path d="M50,21c2.2,0,4,1.8,4,4c0,2.2-1.8,4-4,4c-2.2,0-4-1.8-4-4C46,22.8,47.8,21,50,21 M50,33c4.4,0,8-3.6,8-8s-3.6-8-8-8
		s-8,3.6-8,8S45.6,33,50,33"/>
	<path d="M37,25c0,1.1,0.9,2,2,2s2-0.9,2-2s-0.9-2-2-2S37,23.9,37,25"/>
	<path d="M63,25c0-1.1-0.9-2-2-2s-2,0.9-2,2s0.9,2,2,2S63,26.1,63,25"/>
	<path d="M52,14c0-1.1-0.9-2-2-2s-2,0.9-2,2s0.9,2,2,2S52,15.1,52,14"/>
	<path d="M43.6,18.6c0.8-0.8,0.8-2,0-2.8c-0.8-0.8-2-0.8-2.8,0c-0.8,0.8-0.8,2,0,2.8C41.6,19.4,42.9,19.4,43.6,18.6"/>
	<path d="M59.2,34.2c0.8-0.8,0.8-2,0-2.8c-0.8-0.8-2-0.8-2.8,0c-0.8,0.8-0.8,2,0,2.8C57.1,35,58.4,35,59.2,34.2"/>
	<path d="M59.2,18.6c0.8-0.8,0.8-2,0-2.8c-0.8-0.8-2-0.8-2.8,0c-0.8,0.8-0.8,2,0,2.8C57.1,19.4,58.4,19.4,59.2,18.6"/>
	<path d="M43.6,34.2c0.8-0.8,0.8-2,0-2.8c-0.8-0.8-2-0.8-2.8,0c-0.8,0.8-0.8,2,0,2.8C41.6,35,42.9,35,43.6,34.2"/>
	<path d="M2,38h96c1.1,0,2-0.9,2-2c0-1.1-0.9-2-2-2H2c-1.1,0-2,0.9-2,2C0,37.1,0.9,38,2,38"/>
	<path d="M68,25c0-9.9-8.1-18-18-18s-18,8.1-18,18c0,3.3,0.9,6.4,2.4,9h4.9c-2-2.4-3.3-5.6-3.3-9c0-7.7,6.3-14,14-14s14,6.3,14,14
		c0,3.4-1.2,6.6-3.3,9h4.9C67.1,31.4,68,28.3,68,25"/>
	<path d="M5,25c0,2.1,2.8,5.4,7.3,9H19c-6-4.1-9.2-7.6-9.9-9c0.8-1.8,5.6-6.7,14.8-12.1C33.4,7.3,43.2,4,50,4s16.6,3.3,26.1,8.9
		c9.2,5.4,14,10.3,14.8,12.1c-0.7,1.4-3.9,4.9-9.9,9h6.7c4.4-3.6,7.3-6.9,7.3-9c0-6.5-27.2-25-45-25S5,18.5,5,25"/>
	<path d="M50,46c-4.5,0-10.2-1.4-16.3-4h-9.2c8.3,4.5,17.8,8,25.5,8s17.3-3.5,25.5-8h-9.2C60.2,44.6,54.5,46,50,46"/>
</g>
</svg>
