<?xml version="1.0" encoding="utf-8"?>
<!-- Generator: Adobe Illustrator 21.0.2, SVG Export Plug-In . SVG Version: 6.00 Build 0)  -->
<svg version="1.1" id="Слой_1" xmlns="http://www.w3.org/2000/svg" xmlns:xlink="http://www.w3.org/1999/xlink" x="0px" y="0px"
	 viewBox="0 0 78.1 61.4" style="enable-background:new 0 0 78.1 61.4;" xml:space="preserve">
<path d="M71.5,1.3c-2.1-1.9-5.6-1.6-7.4,0.4l-5.4,6.1l0,0l-25,28.8c-0.3,0.4-0.5,0.8-0.5,1.3L32,48.6c-0.1,0.7,0.2,1.5,0.8,2
	c0.4,0.4,1,0.6,1.5,0.6c0.2,0,0.4,0,0.5-0.1l10.5-2.5c0.5-0.1,0.9-0.4,1.2-0.7L73,17.4l3.8-4.3c1.9-2.2,1.7-5.5-0.5-7.4L71.5,1.3z
	 M67.5,4.8c0.3-0.4,0.6-0.3,0.9-0.1l4.9,4.4c0.3,0.2,0.3,0.6,0.1,0.9l-2.3,2.6l-5.9-5.2L67.5,4.8z M37.3,42.8l2.7,2.4l-3,0.7
	L37.3,42.8z M44.6,43.1l-5.9-5.2l23.4-27l5.9,5.2L44.6,43.1z"/>
<path d="M61.1,38.2c-1.3,0-2.3,1-2.3,2.3v16.4H4.6v-49h44.1c1.3,0,2.3-1,2.3-2.3s-1-2.3-2.3-2.3H4.1C1.8,3.3,0,5.2,0,7.4v49.9
	c0,2.3,1.9,4.1,4.1,4.1h55.1c2.3,0,4.1-1.9,4.1-4.1V40.5C63.4,39.3,62.3,38.2,61.1,38.2z"/>
<path d="M11.1,25.4h9.4c1.3,0,2.3-1,2.3-2.3s-1-2.3-2.3-2.3h-9.4c-1.3,0-2.3,1-2.3,2.3C8.8,24.3,9.8,25.4,11.1,25.4z"/>
<path d="M36.6,14c0-1.3-1-2.3-2.3-2.3H11.1c-1.3,0-2.3,1-2.3,2.3s1,2.3,2.3,2.3h23.2C35.6,16.3,36.6,15.3,36.6,14z"/>
<path d="M30.8,32.1c0-1.3-1-2.3-2.3-2.3h-17c-1.3,0-2.3,1-2.3,2.3s1,2.3,2.3,2.3h17C29.8,34.4,30.8,33.4,30.8,32.1z"/>
<path d="M11.5,43.5H17c1.3,0,2.3-1,2.3-2.3s-1-2.3-2.3-2.3h-5.5c-1.3,0-2.3,1-2.3,2.3S10.2,43.5,11.5,43.5z"/>
<path d="M11.5,52.5h10.2c1.3,0,2.3-1,2.3-2.3c0-1.3-1-2.3-2.3-2.3H11.5c-1.3,0-2.3,1-2.3,2.3C9.2,51.5,10.2,52.5,11.5,52.5z"/>
</svg>
