<?xml version="1.0" encoding="utf-8"?>
<!-- Generator: Adobe Illustrator 21.0.2, SVG Export Plug-In . SVG Version: 6.00 Build 0)  -->
<svg version="1.1" id="svg_alert" xmlns="http://www.w3.org/2000/svg" xmlns:xlink="http://www.w3.org/1999/xlink" x="0px" y="0px"
	 viewBox="0 0 75 90" style="enable-background:new 0 0 75 90;" xml:space="preserve">
<title>lightning-circle</title>
<desc>Created with Sketch.</desc>
<g>
	<g>
		<path class="kiwi" d="M48.9,9.2C64,14.1,75,28.2,75,45c0,15.1-9,28.2-21.9,34.1l4.3-7.8c7.9-6,13.1-15.6,13.1-26.3c0-14.8-9.7-27.3-23.1-31.5
			C47.9,12.1,48.4,10.7,48.9,9.2L48.9,9.2z M28.5,8.6C12.1,12.6,0,27.4,0,45c0,20.4,16.3,37,36.7,37.5l-2.1-4.6
			c-16.8-1.5-30-15.6-30-32.9c0-14.6,9.5-27,22.7-31.4L28.5,8.6L28.5,8.6z M35.5,0l-17,60l25-15l-1,26h-7l8,19l11-19h-7l9-41l-25,13
			l15-43H35.5L35.5,0z"/>
	</g>
</g>
</svg>
