<?xml version="1.0" encoding="utf-8"?>
<!-- Generator: Adobe Illustrator 21.0.2, SVG Export Plug-In . SVG Version: 6.00 Build 0)  -->
<svg version="1.1"
	 id="Слой_1" xmlns:cc="http://creativecommons.org/ns#" xmlns:dc="http://purl.org/dc/elements/1.1/" xmlns:inkscape="http://www.inkscape.org/namespaces/inkscape" xmlns:rdf="http://www.w3.org/1999/02/22-rdf-syntax-ns#" xmlns:sodipodi="http://sodipodi.sourceforge.net/DTD/sodipodi-0.dtd" xmlns:svg="http://www.w3.org/2000/svg"
	 xmlns="http://www.w3.org/2000/svg" xmlns:xlink="http://www.w3.org/1999/xlink" x="0px" y="0px" viewBox="0 0 76 57.5"
	 style="enable-background:new 0 0 76 57.5;" xml:space="preserve">
<g transform="translate(0,-952.36218)">
	<path d="M37.9,952.4c14.1,0,28.1,8,33.1,19.2c6.6,11.5,6.7,25.6,0.2,37.2c-0.4,0.7-1.1,0.9-1.7,0.9l-8.7-5c-0.6-0.8-0.1-1.7,0-1.9
		c4.3-7.8,4.2-17.3-0.1-25c-2.3-3.7-5.6-7.3-8.8-9.4l-10.6,18.3c1,0.9,1.7,2.2,1.7,3.7c0,2.8-2.2,5-5,5s-5-2.2-5-5s2.2-5,5-5
		c0.6,0,1.1,0.1,1.6,0.3l10.6-18.3c-4.2-1.9-8.5-2.9-12.4-3c-9.7,0-17.2,4.8-22,12.6c-4.7,9.5-4.7,18.5-0.4,26.2
		c0.5,0.4,0.4,1.3-0.2,1.6l-8.7,5c-0.6,0.4-1.5,0-1.6-0.7c-6.8-12-6.3-26.2,0.1-37.4C13,958.4,24.1,952.5,37.9,952.4L37.9,952.4z
		 M37,956.4c-13,0-22.1,6.9-27.9,16.2l3.5,2C18.3,966,27,960.4,37,960.4L37,956.4z M39,956.4v4.1c4.6,0.3,9.6,1.7,13.1,3.5l0.5-0.9
		c0.5-0.6,0.8-0.4,1.4-0.3c0.4,0.3,0.7,0.9,0.4,1.3l-0.5,0.9c3.8,2.4,7.1,5.6,9.6,9.6l3.5-2C60.7,962.4,50.1,956.7,39,956.4z
		 M8.1,974.2c-5.2,9.8-5.6,21.9,0,32.3l3.5-2c-4.9-9.1-4.6-19.7,0-28.3L8.1,974.2z M67.9,974.2l-3.5,2c4.7,8.8,4.8,19.4,0,28.3
		l3.4,2C74,994.4,72.5,983.2,67.9,974.2L67.9,974.2z"/>
</g>
</svg>
